<svg xmlns="http://www.w3.org/2000/svg" xmlns:xlink="http://www.w3.org/1999/xlink" viewBox="0 0 355.56 53.03"><defs><style>.cls-1{fill:url(#linear-gradient);}.cls-2{fill:url(#linear-gradient-2);}.cls-3{fill:url(#linear-gradient-3);}.cls-4{fill:url(#linear-gradient-4);}.cls-5{fill:url(#linear-gradient-5);}.cls-6{fill:url(#linear-gradient-6);}.cls-7{fill:url(#linear-gradient-7);}.cls-8{fill:url(#linear-gradient-8);}.cls-9{fill:url(#linear-gradient-9);}</style><linearGradient id="linear-gradient" x1="100.81" y1="78.45" x2="-12.1" y2="-163.68" gradientUnits="userSpaceOnUse"><stop offset="0" stop-color="#ffb029"/><stop offset="1" stop-color="#ff6e59"/></linearGradient><linearGradient id="linear-gradient-2" x1="155.14" y1="122.99" x2="-1.78" y2="-213.53" xlink:href="#linear-gradient"/><linearGradient id="linear-gradient-3" x1="190.97" y1="125.77" x2="99.75" y2="-69.85" xlink:href="#linear-gradient"/><linearGradient id="linear-gradient-4" x1="277.32" y1="230.76" x2="119.57" y2="-107.53" xlink:href="#linear-gradient"/><linearGradient id="linear-gradient-5" x1="297.36" y1="214.07" x2="184.45" y2="-28.06" xlink:href="#linear-gradient"/><linearGradient id="linear-gradient-6" x1="334.4" y1="210.3" x2="243.04" y2="14.39" xlink:href="#linear-gradient"/><linearGradient id="linear-gradient-7" x1="400.68" y1="268.07" x2="299.59" y2="51.27" xlink:href="#linear-gradient"/><linearGradient id="linear-gradient-8" x1="455.4" y1="282.9" x2="364.18" y2="87.27" xlink:href="#linear-gradient"/><linearGradient id="linear-gradient-9" x1="577.03" y1="46.87" x2="554.93" y2="-0.52" gradientTransform="translate(-540 7)" gradientUnits="userSpaceOnUse"><stop offset="0" stop-color="#ff6e59"/><stop offset="1" stop-color="#ffb029"/></linearGradient></defs><title>starsona_sidelock_small_empty</title><g id="Layer_2" data-name="Layer 2"><g id="Layer_1-2" data-name="Layer 1"><path class="cls-1" d="M82.31,30c-4.66-1.88-7-2.86-7-6.06s2.29-4.83,5.24-4.83a6,6,0,0,1,5.56,3.52l5.56-3.11c-1.72-3.76-6.06-6.38-11-6.38-6.55,0-12.11,4.09-12.11,11.13,0,6,4,9.17,10.88,11.7,4.58,1.8,7,2.95,7,5.89s-2.13,5.24-6.22,5.24a7.59,7.59,0,0,1-7.2-4.5l-6.06,2.29C68.48,49.43,74.38,53,80.59,53,87.55,53,93,48.45,93,41.65,93,34.7,87.31,32,82.31,30Z"/><polygon class="cls-2" points="112.59 0 105.8 0 105.8 13.83 97.7 13.83 97.7 19.97 105.8 19.97 105.8 52.29 112.59 52.29 112.59 19.97 120.61 19.97 120.61 13.83 112.59 13.83 112.59 0"/><path class="cls-3" d="M157.68,19.31a18.18,18.18,0,0,0-14.24-6.22c-10.31,0-19.23,8.92-19.23,20s8.92,20,19.23,20a18.18,18.18,0,0,0,14.24-6.22v5.48h6.71V13.83h-6.71ZM144.34,46.48a13.42,13.42,0,1,1,13.34-13.42A13.38,13.38,0,0,1,144.34,46.48Z"/><path class="cls-4" d="M180.92,19.8v-6h-6.71V52.29h6.71V31.92c0-7,4.34-12.28,10.07-12.28a8.48,8.48,0,0,1,3.11.65l2.29-5.73a10.7,10.7,0,0,0-5.56-1.47C186.24,13.09,183,15.71,180.92,19.8Z"/><path class="cls-5" d="M215.62,30c-4.66-1.88-7-2.86-7-6.06s2.29-4.83,5.24-4.83a6,6,0,0,1,5.56,3.52l5.56-3.11c-1.72-3.76-6.06-6.38-11-6.38-6.55,0-12.11,4.09-12.11,11.13,0,6,4,9.17,10.88,11.7,4.58,1.8,7,2.95,7,5.89s-2.13,5.24-6.22,5.24a7.59,7.59,0,0,1-7.2-4.5l-6.06,2.29c1.64,4.58,7.53,8.18,13.75,8.18,7,0,12.44-4.58,12.44-11.37C226.34,34.7,220.61,32,215.62,30Z"/><path class="cls-6" d="M251.79,13.09a20,20,0,1,0,20,20A20,20,0,0,0,251.79,13.09Zm0,33.39a13.42,13.42,0,1,1,13.34-13.42A13.33,13.33,0,0,1,251.79,46.48Z"/><path class="cls-7" d="M294.51,13.09a13.86,13.86,0,0,0-9.33,3.52V13.83h-6.71V52.29h6.71V27.17a8.27,8.27,0,0,1,16.53.33v24.8h6.71V27A13.9,13.9,0,0,0,294.51,13.09Z"/><path class="cls-8" d="M348.85,13.83v5.48a18.18,18.18,0,0,0-14.24-6.22c-10.31,0-19.23,8.92-19.23,20s8.92,20,19.23,20a18.18,18.18,0,0,0,14.24-6.22v5.48h6.71V13.83ZM335.51,46.48a13.42,13.42,0,1,1,13.34-13.42A13.38,13.38,0,0,1,335.51,46.48Z"/><path class="cls-9" d="M47.41,20.69H1.28A1.27,1.27,0,0,0,.54,23l13.09,9.18a1.27,1.27,0,0,1,.46,1.47L8.49,49a1.28,1.28,0,0,0,2,1.46L48.17,23A1.27,1.27,0,0,0,47.41,20.69Zm-11,6.1L18.37,40a1.28,1.28,0,0,1-2-1.46l2.29-6.26a1.27,1.27,0,0,0-.46-1.47L12.6,26.81a1.27,1.27,0,0,1,.74-2.31H35.7A1.27,1.27,0,0,1,36.46,26.79ZM20.53,19.42h10a1.27,1.27,0,0,0,1.21-1.66l-5-15.22a1.28,1.28,0,0,0-2.42,0l-5,15.22A1.27,1.27,0,0,0,20.53,19.42ZM36.31,35.25a1.28,1.28,0,0,0-2-.63L26.2,40.54a1.26,1.26,0,0,0,0,2l13.16,9.48a1.27,1.27,0,0,0,2-1.41Z"/></g></g></svg>